<?xml version="1.0" standalone="no"?>
<!DOCTYPE svg PUBLIC "-//W3C//DTD SVG 20010904//EN"
 "http://www.w3.org/TR/2001/REC-SVG-20010904/DTD/svg10.dtd">
<svg version="1.0" xmlns="http://www.w3.org/2000/svg"
 width="225.000000pt" height="225.000000pt" viewBox="0 0 225.000000 225.000000"
 preserveAspectRatio="xMidYMid meet">
<metadata>
Created by potrace 1.16, written by Peter Selinger 2001-2019
</metadata>
<g transform="translate(0.000000,225.000000) scale(0.100000,-0.100000)"
fill="#000000" stroke="none">
<path d="M523 1925 c-57 -24 -112 -140 -98 -205 3 -15 17 -38 30 -50 14 -13
27 -38 31 -56 4 -22 10 -31 19 -27 9 3 17 -9 25 -36 7 -26 17 -41 27 -41 13 0
14 2 2 17 -12 15 -12 16 8 11 12 -3 22 -3 21 1 -2 20 4 31 17 31 9 0 19 8 22
18 4 9 11 20 17 25 7 5 6 10 -4 17 -12 8 -10 10 10 11 14 1 33 2 42 1 10 -1
17 2 17 6 -4 22 3 34 16 28 9 -3 15 0 15 8 0 22 -85 76 -122 76 -28 1 -89 29
-62 30 5 0 1 7 -9 14 -16 13 -16 14 8 18 14 3 33 -1 42 -8 22 -17 53 -18 53
-2 0 6 -3 8 -7 5 -3 -4 -12 -2 -20 4 -7 6 -13 8 -13 5 0 -4 -14 3 -31 15 -35
25 -22 45 16 25 12 -7 39 -11 59 -11 20 1 34 0 32 -3 -2 -2 7 -20 20 -39 31
-46 31 -63 -1 -33 -37 35 -38 20 0 -24 24 -28 37 -37 50 -32 16 6 16 8 3 24
-9 9 -19 27 -22 39 -6 18 -4 20 13 16 12 -3 19 -9 16 -12 -2 -4 3 -8 12 -8 11
0 -4 19 -38 49 -106 97 -158 119 -216 93z"/>
<path d="M1635 1924 c-21 -7 -54 -26 -74 -43 -119 -102 -135 -113 -160 -107
-14 3 -68 9 -118 12 -108 8 -125 -6 -30 -25 89 -19 148 -17 181 4 21 14 30 15
35 6 4 -6 15 -9 25 -5 15 6 17 2 15 -22 -4 -57 0 -76 16 -70 8 3 15 1 15 -5 0
-6 3 -8 8 -6 4 3 16 1 27 -4 l20 -8 -20 0 c-17 -1 -15 -4 10 -21 17 -11 24
-20 15 -20 -9 -1 -5 -6 10 -15 14 -8 21 -15 15 -15 -5 0 0 -9 12 -19 12 -10
19 -21 16 -25 -4 -3 0 -6 8 -6 17 0 47 -32 42 -46 -2 -5 6 -15 18 -22 12 -8
19 -9 15 -4 -3 5 1 18 9 28 20 27 19 48 -2 40 -13 -4 -12 -1 5 13 16 14 22 30
22 58 0 26 8 51 25 73 36 49 34 118 -4 185 -40 70 -89 92 -156 69z"/>
<path d="M1148 1843 c-8 -10 -22 -13 -42 -9 -53 11 -109 6 -166 -15 -42 -15
-47 -18 -20 -14 67 9 160 8 173 -4 8 -6 17 -8 20 -4 4 3 7 -3 7 -15 0 -16 -8
-23 -27 -27 -44 -9 -166 -46 -190 -57 -22 -11 -78 -86 -70 -94 2 -3 38 17 78
44 67 43 80 48 129 48 48 -1 55 -4 58 -22 2 -15 -7 -29 -26 -43 -26 -18 -31
-19 -42 -6 -7 8 -19 15 -26 15 -25 0 -99 -42 -117 -66 -18 -24 -18 -24 10 -25
15 -1 37 -2 48 -3 11 0 37 7 57 16 28 14 43 16 63 8 15 -6 31 -8 36 -4 5 3 9
-13 9 -35 0 -40 -1 -41 -34 -41 -46 0 -89 -17 -83 -33 2 -6 14 -11 27 -9 18 2
21 -2 17 -18 -3 -11 -1 -23 4 -26 5 -3 0 -19 -12 -35 -27 -38 -43 -28 -24 17
8 19 10 32 5 29 -19 -11 -39 -62 -37 -91 2 -34 -25 -44 -53 -19 -18 16 -18 20
-4 56 20 48 15 68 -10 44 -35 -36 -3 -154 44 -165 29 -7 51 -53 33 -71 -16
-16 -30 -4 -38 30 -10 48 -38 65 -115 69 -38 2 -74 9 -79 16 -15 18 -14 206 1
206 17 0 29 40 17 61 -6 12 -7 19 -1 15 6 -3 19 10 31 30 26 44 26 48 -1 32
-13 -6 -33 -11 -45 -9 -17 2 -21 -2 -17 -13 3 -9 1 -16 -5 -16 -7 0 -24 -11
-39 -25 -15 -14 -34 -25 -42 -25 -11 -1 -10 -5 6 -18 l22 -18 -40 -17 c-21
-10 -36 -22 -33 -27 3 -6 1 -10 -4 -10 -6 0 -11 -5 -11 -11 0 -6 7 -9 15 -5
33 12 11 -4 -51 -39 -43 -24 -62 -40 -54 -45 9 -5 9 -9 1 -14 -6 -4 -11 -16
-11 -26 0 -10 -4 -20 -10 -22 -5 -1 -11 -12 -13 -23 -2 -11 -11 -36 -20 -55
-17 -39 -14 -52 11 -43 11 4 7 -5 -12 -25 -28 -30 -28 -31 -5 -26 13 2 19 2
12 -2 -7 -3 -9 -12 -6 -20 3 -7 0 -27 -6 -44 -5 -17 -7 -29 -3 -26 5 3 14 1
21 -3 10 -7 10 -18 -3 -61 -13 -45 -14 -50 -1 -40 19 15 19 8 0 -55 l-15 -49
35 34 c34 33 35 34 35 9 -1 -13 -7 -53 -15 -89 -7 -36 -12 -66 -10 -68 2 -2
12 1 22 6 11 6 25 7 33 2 8 -5 19 -5 25 -1 29 22 41 19 37 -10 l-4 -29 35 15
c20 8 38 11 42 6 3 -5 -1 -12 -7 -15 -7 -3 -2 -3 11 0 29 8 19 -14 -12 -25
-20 -8 -20 -8 -1 -13 11 -3 42 5 69 18 59 29 70 30 30 4 -39 -26 -16 -26 38 0
45 22 29 6 -23 -22 -28 -16 -34 -38 -9 -38 6 0 7 4 4 10 -3 6 1 7 10 4 10 -4
15 -2 13 7 -2 9 5 13 20 12 14 -2 22 3 22 12 0 12 15 14 85 11 97 -4 124 8 37
17 -31 3 -58 11 -60 17 -2 5 -19 10 -38 10 -24 0 -43 8 -61 26 -25 25 -29 26
-124 22 -106 -3 -121 6 -24 15 33 3 80 8 105 11 36 4 39 4 15 -3 -28 -8 -29
-9 -5 -10 14 -1 59 -12 100 -25 46 -15 76 -20 79 -14 2 6 -2 14 -9 18 -9 5 -8
9 3 13 9 3 17 18 19 34 l3 28 18 -32 c9 -18 27 -38 40 -44 45 -24 107 -82 107
-100 0 -18 -59 -64 -112 -87 -28 -11 -34 -5 -29 30 0 4 -15 4 -34 1 -42 -7
-49 14 -7 23 49 11 48 12 -8 13 -30 1 -61 5 -69 10 -20 13 -65 -17 -51 -34 5
-6 7 -15 3 -18 -10 -11 6 -8 30 4 16 8 12 1 -12 -25 -37 -39 -36 -46 4 -20 23
15 25 15 31 0 3 -9 9 -14 13 -12 3 2 7 -12 9 -32 3 -43 5 -45 41 -48 25 -2 31
4 44 37 15 37 18 39 59 39 31 0 39 3 28 10 -17 11 -10 13 14 4 9 -3 16 -14 16
-23 0 -14 2 -14 10 -1 6 9 5 17 -3 22 -9 5 -9 10 0 19 9 9 19 6 42 -10 17 -13
31 -29 31 -36 0 -8 5 -17 11 -21 7 -4 9 0 5 12 -5 17 0 19 42 18 34 0 58 -8
87 -28 48 -33 65 -57 34 -49 -13 4 -17 8 -9 13 8 5 8 9 -2 13 -27 10 -15 -24
14 -41 15 -9 28 -20 28 -25 0 -4 4 -6 9 -3 5 3 8 -2 7 -11 -2 -28 21 -25 29 4
6 27 7 27 20 9 8 -10 11 -24 8 -30 -4 -6 1 -5 10 3 9 7 14 17 11 22 -3 5 0 8
7 7 7 -2 15 6 17 17 2 11 9 25 14 30 8 7 8 5 3 -5 -6 -12 -5 -13 5 -3 11 11
10 17 -10 38 -27 29 -21 32 15 9 14 -9 22 -21 19 -28 -4 -6 2 -3 12 7 19 18
19 18 0 32 -10 8 -22 12 -27 10 -4 -3 -11 -1 -14 5 -5 8 -11 7 -21 -1 -9 -8
-18 -8 -26 -2 -7 6 -21 10 -31 10 -14 0 -11 -7 14 -34 18 -18 30 -35 28 -38
-3 -3 -16 6 -28 19 -14 14 -29 22 -38 19 -9 -4 -23 3 -34 18 -16 20 -18 21
-13 4 5 -15 4 -17 -5 -9 -14 13 -4 47 12 37 6 -4 7 -1 3 6 -5 7 -11 10 -14 7
-3 -4 -16 3 -28 15 -14 13 -29 19 -40 15 -9 -3 -23 -1 -32 6 -13 12 -14 11 -1
-9 18 -30 6 -38 -33 -22 -44 18 -98 67 -98 90 0 10 19 35 43 56 78 70 117 114
117 131 -1 13 -6 10 -21 -10 -11 -16 -30 -28 -40 -28 -11 0 -33 -7 -50 -15
-16 -9 -34 -13 -39 -10 -6 3 -10 2 -10 -4 0 -5 -22 2 -50 15 -27 13 -55 24
-61 24 -5 0 -7 4 -4 10 3 6 0 10 -7 10 -10 0 -10 2 1 9 9 6 11 18 7 35 -4 18
0 43 14 72 21 49 19 67 -6 57 -8 -3 -14 -1 -12 5 2 6 -5 17 -16 25 -17 13 -18
15 -2 39 9 13 14 28 11 31 -3 4 -2 5 1 2 4 -2 15 7 26 20 10 13 25 22 32 19 9
-3 11 4 8 26 -5 33 11 40 27 13 10 -17 12 -17 25 0 8 10 23 17 34 15 23 -4 26
3 17 43 -8 35 -1 47 18 31 7 -6 12 -30 12 -58 -1 -41 3 -51 33 -80 21 -21 31
-38 26 -46 -4 -7 -4 -10 1 -6 4 4 23 -6 42 -23 40 -35 51 -32 34 9 -7 17 -11
45 -9 63 3 29 8 34 36 40 37 7 72 35 72 56 0 16 37 32 62 25 10 -2 29 -15 43
-28 33 -30 33 -14 1 79 -22 66 -21 79 9 83 6 0 16 2 23 2 23 3 11 37 -28 76
-30 30 -37 43 -28 53 8 10 17 5 42 -26 17 -21 47 -52 66 -67 42 -34 52 -48 40
-52 -5 -2 3 -15 17 -28 15 -14 28 -30 29 -37 2 -7 5 -23 8 -35 4 -18 2 -22
-10 -18 -12 5 -12 2 -3 -15 6 -12 7 -19 1 -15 -20 12 -22 -38 -6 -146 4 -29 6
-57 5 -63 -2 -5 -5 -23 -7 -40 -2 -16 -5 -36 -6 -42 -1 -7 -5 -13 -9 -13 -5 0
-6 -15 -2 -32 3 -18 3 -30 -1 -26 -4 3 -16 -1 -27 -10 -20 -17 -25 -32 -10
-32 15 0 83 -31 79 -36 -3 -2 -26 5 -53 17 -26 12 -50 17 -54 13 -6 -9 -25
-14 -62 -17 -9 -1 -14 -7 -12 -14 3 -8 15 -13 27 -12 44 4 109 -1 102 -8 -3
-4 10 -15 30 -25 21 -10 39 -16 42 -14 3 4 -6 62 -23 143 -5 23 6 24 48 8 10
-5 17 -3 17 5 0 9 4 9 17 -1 12 -10 15 -10 9 -1 -4 7 -10 24 -12 39 -3 15 -10
33 -16 40 -7 9 -7 17 1 26 8 10 7 17 -1 25 -16 16 4 15 22 -1 8 -6 7 -3 -3 9
-9 11 -14 23 -11 27 3 3 2 12 -2 19 -5 7 -10 20 -11 28 -1 8 -4 24 -5 35 -2
11 -7 25 -11 32 -4 6 -3 14 3 18 6 4 7 11 3 18 -9 15 -10 55 -1 70 4 6 0 20
-9 30 -16 17 -16 17 3 11 16 -5 16 -3 -4 13 -13 10 -24 28 -25 40 -1 13 -16
29 -44 44 -24 13 -43 29 -43 36 0 7 -9 18 -19 25 -10 6 -17 17 -14 24 2 7 -13
24 -34 37 -21 14 -58 47 -82 73 -47 52 -119 98 -102 65 15 -27 63 -71 72 -66
4 3 11 0 15 -6 4 -7 3 -9 -2 -6 -6 3 -16 2 -23 -2 -9 -6 -7 -17 11 -47 20 -34
23 -51 22 -137 -1 -55 -7 -103 -13 -111 -8 -9 -26 -12 -61 -8 -61 6 -91 -12
-120 -68 -11 -22 -25 -40 -30 -40 -19 0 -22 49 -6 81 15 30 15 34 0 50 -13 14
-14 22 -5 32 8 11 7 26 -7 63 l-17 49 -3 -37 c-4 -50 -32 -53 -32 -4 0 19 -3
42 -7 51 -5 14 -2 16 18 10 l24 -7 -24 26 c-14 14 -31 26 -39 26 -10 0 -13 7
-8 23 3 12 6 27 6 33 0 20 27 23 76 8 105 -31 150 -8 77 40 -54 35 -110 44
-127 20 -13 -17 -15 -16 -45 13 -17 17 -31 39 -31 49 0 14 7 16 38 11 20 -3
48 -9 62 -13 19 -5 11 5 -29 39 -30 26 -58 47 -63 47 -4 0 -8 9 -8 19 0 13 11
23 36 31 32 11 67 10 159 -6 26 -4 28 -3 11 7 -49 30 -169 44 -188 22z m-418
-333 c0 -5 -4 -10 -8 -10 -14 0 -58 -75 -65 -110 l-7 -32 35 6 c19 4 35 4 35
0 0 -4 -12 -36 -26 -72 -14 -35 -28 -91 -32 -125 -4 -34 -12 -62 -19 -65 -19
-6 -17 90 2 135 16 38 12 98 -6 87 -5 -3 -9 0 -9 6 0 16 -42 8 -50 -10 -26
-57 -37 -74 -48 -78 -9 -3 -11 4 -6 25 3 15 8 40 11 56 3 15 9 27 14 27 5 0 9
7 9 15 0 8 16 25 35 37 19 13 54 44 77 70 43 47 58 57 58 38z m49 -270 c10 0
24 -15 33 -34 13 -25 28 -38 60 -49 32 -11 42 -19 41 -33 -2 -10 -5 -42 -7
-69 -6 -68 -16 -105 -28 -105 -6 0 -8 -6 -5 -13 3 -8 -1 -14 -8 -14 -8 0 -11
9 -9 24 3 15 1 22 -6 18 -13 -8 -13 1 1 27 19 36 2 30 -20 -7 -25 -43 -27 -52
-6 -35 19 16 19 7 -1 -32 -11 -22 -12 -28 -2 -22 19 12 39 14 32 3 -3 -5 -10
-6 -16 -3 -8 5 -9 1 -5 -10 4 -9 3 -15 -2 -12 -5 3 -11 -8 -15 -24 -5 -28 -36
-44 -36 -20 0 6 5 10 10 10 6 0 10 5 10 11 0 5 -5 7 -11 3 -7 -4 -10 -1 -7 7
3 8 11 13 17 11 7 -1 9 2 6 8 -5 8 -13 6 -24 -4 -22 -20 -31 -20 -31 -1 0 8 4
15 9 15 13 0 23 32 13 39 -5 3 -12 16 -16 27 -5 17 0 26 29 42 39 24 45 17 15
-21 -11 -14 -20 -28 -20 -32 0 -4 14 9 30 30 30 37 40 62 20 50 -5 -3 -10 -2
-10 4 0 5 -12 4 -27 -5 -16 -7 -35 -14 -43 -15 -10 0 -11 -2 -2 -6 26 -10 1
-21 -26 -11 -36 14 -55 59 -41 96 l10 25 20 -40 c22 -45 47 -58 68 -36 10 12
9 18 -6 40 -30 43 -52 77 -59 91 -3 6 -12 12 -20 12 -8 0 -14 5 -14 10 0 18
53 61 68 55 7 -3 21 -5 31 -5z"/>
<path d="M1617 1314 c-32 -29 -32 -29 -12 -84 25 -70 30 -169 12 -212 -13 -32
-21 -38 -45 -38 -27 0 -82 -33 -82 -48 0 -4 4 -13 9 -21 7 -11 13 -9 30 8 46
46 85 -7 40 -55 l-22 -24 22 0 c12 0 38 15 57 32 30 28 35 37 29 63 -15 74
-15 106 -1 204 19 127 20 175 3 189 -10 8 -20 5 -40 -14z"/>
<path d="M1446 1178 c-43 -46 -46 -53 -32 -64 13 -9 14 -13 4 -17 -9 -4 -2
-16 21 -36 31 -27 37 -29 55 -17 12 7 31 27 42 44 17 25 20 39 14 71 -8 43
-25 71 -44 71 -6 0 -33 -24 -60 -52z"/>
</g>
</svg>
